#!OML:ASF X:\für Bonn\!DataBase\2005_08_11_Bastian_Final\c3d\Bastian.ASF
:FULLY-SPECIFIED
:DEGREES
219
root 0.279783 17.4536 -7.51997 166.426 -32.2953 -175.498
lowerback 12.1263 -2.66517 7.19165
upperback 5.88719 -3.37414 2.55359
thorax -0.811182 -1.86875 -0.93889
lowerneck -1.89652 -11.7792 -1.67376
upperneck -15.1777 -15.577 13.0675
head -3.01725 -8.61902 4.41947
rclavicle -6.7388e-014 -4.77083e-014
rhumerus -233.416 -175.578 112.731
rradius 36.7163
rwrist -151.678
rhand -25.9001 6.9249
rfingers 7.12502
rthumb 0.642259 -23.0539
lclavicle -6.7388e-014 -4.77083e-014
lhumerus -85.9232 47.6699 -3.22597
lradius 21.9995
lwrist 143.33
lhand -21.4285 9.56587
lfingers 7.12502
lthumb 4.96056 39.4878
rfemur -11.836 5.04166 25.8253
rtibia 37.9458
rfoot -10.016 -1.51036
rtoes -1.27491
lfemur 16.5415 -5.84736 -12.4927
ltibia 27.6199
lfoot -10.3584 -12.5088
ltoes -20.4105
220
root 0.292898 17.4376 -7.44576 166.469 -31.6214 -175.434
lowerback 12.0729 -2.67253 7.05564
upperback 5.94368 -3.41636 2.55011
thorax -0.719842 -1.89265 -0.866469
lowerneck -2.07427 -11.6296 -1.62901
upperneck -14.9629 -15.4019 12.9133
head -2.95357 -8.5178 4.34778
rclavicle -1.68967e-015 3.10104e-014
rhumerus -233.274 -176.365 112.656
rradius 37.1928
rwrist -152.34
rhand -25.9756 6.86602
rfingers 7.12502
rthumb 0.569327 -23.113
lclavicle -1.68967e-015 3.10104e-014
lhumerus -85.153 46.2387 -2.23479
lradius 21.949
lwrist 143.628
lhand -21.7783 9.68935
lfingers 7.12502
lthumb 4.62283 39.6189
rfemur -12.3631 4.96666 25.8406
rtibia 38.1496
rfoot -9.94549 -0.844182
rtoes -1.93175
lfemur 17.0308 -5.82068 -12.6338
ltibia 26.5709
lfoot -11.0534 -12.2045
ltoes -20.819
221
root 0.307863 17.4217 -7.36792 166.476 -30.942 -175.341
lowerback 12.0544 -2.68162 6.93643
upperback 6.02012 -3.46086 2.55268
thorax -0.626352 -1.91904 -0.795653
lowerneck -2.24834 -11.4722 -1.5654
upperneck -14.7972 -15.217 12.7621
head -2.90691 -8.41623 4.27788
rclavicle -2.28602e-014 -2.06736e-014
rhumerus -233.077 -176.866 112.773
rradius 37.6224
rwrist -152.839
rhand -26.0306 6.64335
rfingers 7.12502
rthumb 0.516228 -23.3358
lclavicle -2.28602e-014 -2.06736e-014
lhumerus -84.3448 44.8615 -1.06324
lradius 21.9163
lwrist 143.827
lhand -22.0612 9.8235
lfingers 7.12502
lthumb 4.34963 39.7588
rfemur -12.8761 4.83237 25.8896
rtibia 38.3285
rfoot -9.87405 -0.160766
rtoes -2.64499
lfemur 17.5166 -5.77832 -12.7482
ltibia 25.5352
lfoot -11.7383 -11.7981
ltoes -21.5328
222
root 0.323108 17.4051 -7.28714 166.44 -30.2748 -175.219
lowerback 12.0963 -2.71709 6.79796
upperback 6.10021 -3.54048 2.57894
thorax -0.561007 -1.96625 -0.681782
lowerneck -2.55925 -11.2861 -1.42164
upperneck -14.2062 -15.0765 12.2254
head -3.08522 -8.28497 4.51617
rclavicle 2.56432e-014 -1.43125e-014
rhumerus -232.799 -177.258 113.017
rradius 38.0424
rwrist -153.274
rhand -26.1444 6.4294
rfingers 7.12502
rthumb 0.406327 -23.55
lclavicle 2.56432e-014 -1.43125e-014
lhumerus -83.6707 43.5202 0.115997
lradius 21.8803
lwrist 143.972
lhand -22.3017 9.87705
lfingers 7.12502
lthumb 4.11746 39.817
rfemur -13.3376 4.6092 25.9673
rtibia 38.4738
rfoot -9.84291 0.563518
rtoes -3.81873
lfemur 17.9959 -5.75454 -12.8415
ltibia 24.5242
lfoot -12.3746 -11.3724
ltoes -21.9392
223
root 0.339913 17.3914 -7.20486 166.396 -29.6189 -175.077
lowerback 12.1388 -2.77876 6.63455
upperback 6.20114 -3.662 2.60504
thorax -0.47464 -2.03565 -0.549509
lowerneck -2.80058 -11.0566 -1.20411
upperneck -14.0567 -14.8041 11.9939
head -3.04515 -8.14706 4.37825
rclavicle 1.26129e-013 -5.40694e-014
rhumerus -232.418 -177.504 113.326
rradius 38.4419
rwrist -153.626
rhand -26.221 6.18161
rfingers 7.12502
rthumb 0.332317 -23.7979
lclavicle 1.26129e-013 -5.40694e-014
lhumerus -83.0331 42.2239 1.39101
lradius 21.8525
lwrist 144.511
lhand -22.4073 9.58762
lfingers 7.12502
lthumb 4.01542 39.5295
rfemur -13.7653 4.42836 26.0752
rtibia 38.5725
rfoot -9.84952 1.18765
rtoes -4.95756
lfemur 18.4348 -5.69885 -12.8979
ltibia 23.5399
lfoot -12.9965 -10.8795
ltoes -22.4722
224
root 0.358758 17.3791 -7.12057 166.382 -28.9579 -174.965
lowerback 12.1991 -2.82769 6.43824
upperback 6.28466 -3.76543 2.62939
thorax -0.413089 -2.09697 -0.401699
lowerneck -3.06841 -10.8526 -0.993335
upperneck -13.846 -14.5672 11.7306
head -2.97708 -8.02061 4.22356
rclavicle 9.0447e-015 -1.66979e-014
rhumerus -231.981 -177.66 113.677
rradius 38.8266
rwrist -153.924
rhand -26.2872 5.95232
rfingers 7.12502
rthumb 0.268324 -24.0273
lclavicle 9.0447e-015 -1.66979e-014
lhumerus -82.2272 40.8941 3.04735
lradius 21.8438
lwrist 145.521
lhand -22.8171 9.58972
lfingers 7.12502
lthumb 3.61976 39.5387
rfemur -14.1795 4.28531 26.1774
rtibia 38.6288
rfoot -9.90848 1.72381
rtoes -6.69186
lfemur 18.8253 -5.65994 -12.9936
ltibia 22.5855
lfoot -13.5354 -10.2746
ltoes -22.828
225
root 0.379401 17.3685 -7.03387 166.404 -28.2984 -174.863
lowerback 12.2322 -2.87041 6.23017
upperback 6.37473 -3.86479 2.64822
thorax -0.32877 -2.15607 -0.255629
lowerneck -3.28951 -10.622 -0.782222
upperneck -13.7209 -14.294 11.5237
head -2.94439 -7.88487 4.09962
rclavicle -1.33186e-014 1.51076e-014
rhumerus -231.472 -177.616 114.084
rradius 39.1861
rwrist -154.049
rhand -26.2684 5.70607
rfingers 7.12502
rthumb 0.286501 -24.2735
lclavicle -1.33186e-014 1.51076e-014
lhumerus -81.8192 39.7801 4.20726
lradius 21.8527
lwrist 146.061
lhand -23.4896 10.1459
lfingers 7.12502
lthumb 2.97024 40.1049
rfemur -14.5881 4.31053 26.2858
rtibia 38.639
rfoot -10.055 2.1079
rtoes -8.96175
lfemur 19.1514 -5.56455 -13.065
ltibia 21.667
lfoot -13.9976 -9.69286
ltoes -22.6705
